# xmcd CD database file
#
# Track frame offsets:
#	150
#	19803
#	38557
#	58879
#	78111
#	98024
#	114612
#	136258
#	154503
#	173621
#
# Disc length: 2518 seconds
#
# Revision: 0
# Processed by: cddbd v1.5.2PL0 Copyright (c) Steve Scherf et al.
# Submitted via: NeoAudio 9.9.9
#
DISCID=6e09d40a
DTITLE=Carlos Oliva and Los Sobrinos Del Juez - Crossing Over
DYEAR=2004
DGENRE=Salsa
TTITLE0=All Night Long
TTITLE1=Rock The Boat
TTITLE2=Play That Funky Music White Boy
TTITLE3=You'll Never Find Another Love Like Mine
TTITLE4=Can't Take My Eyes Off You
TTITLE5=Get Ready
TTITLE6=Celebration
TTITLE7=Make Me Smile
TTITLE8=Vehicle
TTITLE9=C-7 Jam
EXTD=YEAR: 2004
EXTT0=
EXTT1=
EXTT2=
EXTT3=
EXTT4=
EXTT5=
EXTT6=
EXTT7=
EXTT8=
EXTT9=
PLAYORDER=
